<svg xmlns="http://www.w3.org/2000/svg" width="300" height="300" version="1.1"><g><title>Layer 1</title><g id="svg_1" stroke="null"><path id="svg_2" fill="#f7931a" stroke="null" d="m295.3067,186.2459c-20.00849,80.26631 -101.29238,129.11531 -181.55573,109.09906c-80.23057,-20.01156 -129.07207,-101.31263 -109.05422,-181.57425c19.99912,-80.27567 101.28302,-129.12935 181.52296,-109.11779c80.25866,20.01156 129.09547,101.32199 109.08699,181.59298z"/><path id="svg_3" fill="#FFF" stroke="null" d="m216.04987,128.6553c2.98208,-19.93665 -12.19516,-30.65412 -32.948,-37.80378l6.73192,-27.00671l-16.43655,-4.09689l-6.55402,26.29502c-4.32097,-1.0769 -8.75898,-2.09293 -13.1689,-3.09959l6.60083,-26.46826l-16.42718,-4.09689l-6.7366,26.99735c-3.57662,-0.8147 -7.0877,-1.62003 -10.4958,-2.4675l0.01873,-0.08428l-22.66755,-5.66073l-4.37247,17.55811s12.19516,2.79525 11.93768,2.96849c6.65701,1.66217 7.86014,6.06808 7.65884,9.56098l-7.6682,30.76649c0.45878,0.11705 1.05332,0.28561 1.70873,0.54781c-0.54773,-0.13578 -1.13291,-0.28561 -1.73682,-0.43076l-10.74859,43.0993c-0.81457,2.02269 -2.87909,5.05674 -7.53244,3.90492c0.16385,0.23879 -11.94704,-2.98254 -11.94704,-2.98254l-8.15976,18.81761l21.38951,5.33298c3.97923,0.9973 7.87887,2.04142 11.71765,3.02468l-6.80214,27.31573l16.41782,4.09689l6.7366,-27.02544c4.48482,1.21736 8.83856,2.34108 13.09868,3.39925l-6.71319,26.89902l16.43655,4.09689l6.80214,-27.26423c28.0278,5.30489 49.10366,3.16514 57.97499,-22.18877c7.14856,-20.41423 -0.35579,-32.18987 -15.10234,-39.86861c10.73923,-2.47686 18.82876,-9.54225 20.98691,-24.13655zm-37.55454,52.66964c-5.07937,20.41423 -39.44584,9.37837 -50.58767,6.61121l9.02582,-36.18843c11.14183,2.7812 46.87061,8.28743 41.56185,29.57722zm5.08405,-52.96462c-4.63463,18.56946 -33.23825,9.1349 -42.51687,6.82191l8.18316,-32.82196c9.27862,2.31299 39.16027,6.62994 34.3337,26.00005z"/></g></g></svg>